<?xml version="1.0" encoding="UTF-8"?>
<svg id="Ebene_2" data-name="Ebene 2" xmlns="http://www.w3.org/2000/svg" viewBox="0 0 56 56">
  <defs>
    <style>
      .cls-1 {
        fill: #fff;
      }
    </style>
  </defs>
  <g id="Ebene_1-2" data-name="Ebene 1">
    <g>
      <path class="cls-1" d="M28,22.22c-3.19,0-5.78,2.59-5.78,5.78s2.59,5.77,5.78,5.77,5.78-2.59,5.78-5.77-2.59-5.78-5.78-5.78Z"/>
      <path class="cls-1" d="M41.52,17.78c-.31-.81-.69-1.39-1.3-1.99-.61-.61-1.18-.98-1.99-1.3-.61-.24-1.53-.52-3.22-.6-1.83-.08-2.38-.1-7.01-.1-.58,0-1.09,0-1.56,0h0c-3.23,0-3.85.02-5.45.09-1.69.08-2.61.36-3.22.6-.81.31-1.39.69-1.99,1.3s-.98,1.18-1.3,1.99c-.24.61-.52,1.53-.6,3.22-.08,1.83-.1,2.37-.1,7s.02,5.18.1,7c.08,1.69.36,2.61.6,3.22.31.81.69,1.38,1.3,1.99.61.61,1.18.98,1.99,1.3.61.24,1.53.52,3.22.6,1.83.08,2.38.1,7.01.1s5.18-.02,7.01-.1c1.69-.08,2.61-.36,3.22-.6.81-.31,1.39-.69,1.99-1.3.61-.61.98-1.18,1.3-1.99.24-.61.52-1.53.6-3.22.08-1.83.1-2.38.1-7s-.02-5.17-.1-7c-.08-1.69-.36-2.61-.6-3.22ZM28,36.9c-4.92,0-8.9-3.98-8.9-8.9s3.99-8.9,8.9-8.9h0,0,0c4.92,0,8.9,3.98,8.9,8.9s-3.99,8.9-8.9,8.9ZM37.26,20.83c-1.15,0-2.08-.93-2.08-2.08s.93-2.08,2.08-2.08h0c1.15,0,2.08.93,2.08,2.08s-.93,2.08-2.08,2.08Z"/>
      <path class="cls-1" d="M55.71,12.35c0-6.82-5.24-12.06-12.06-12.06,0,0-1.76-.29-15.65-.29s-15.65.29-15.65.29C5.53.29.29,5.53.29,12.35c0,0-.29,1.29-.29,15.65s.29,15.65.29,15.65c0,6.82,5.24,12.06,12.06,12.06,0,0,4.03.29,15.65.29s15.65-.29,15.65-.29c6.82,0,12.06-5.24,12.06-12.06,0,0,.29-1.11.29-15.65s-.29-15.65-.29-15.65ZM45.23,35.14c-.09,1.84-.38,3.1-.81,4.2-.44,1.14-1.04,2.11-2,3.07-.96.96-1.93,1.56-3.07,2-1.1.43-2.36.72-4.21.8-1.85.08-2.44.1-7.15.1s-5.3-.02-7.15-.1c-1.85-.08-3.11-.38-4.21-.8-1.14-.44-2.11-1.04-3.07-2-.96-.96-1.56-1.93-2-3.07-.43-1.1-.72-2.36-.81-4.2-.08-1.85-.1-2.44-.1-7.14s.02-5.3.1-7.14c.08-1.84.38-3.1.81-4.2.44-1.14,1.04-2.11,2-3.07.96-.96,1.93-1.56,3.07-2,1.1-.43,2.36-.72,4.21-.8,1.85-.08,2.44-.1,7.15-.1h0,0,0c4.71,0,5.3.02,7.15.1,1.85.08,3.11.38,4.21.8,1.14.44,2.11,1.03,3.07,2,.96.96,1.56,1.93,2,3.07.43,1.1.72,2.36.81,4.2.08,1.85.1,2.44.1,7.14s-.02,5.29-.1,7.14Z"/>
    </g>
  </g>
</svg>