<?xml version="1.0" encoding="UTF-8"?>
<svg id="Ebene_2" xmlns="http://www.w3.org/2000/svg" xmlns:xlink="http://www.w3.org/1999/xlink" viewBox="0 0 40 40">
  <defs>
    <style>
      .cls-1 {
        fill: #fff;
      }

      .cls-2 {
        fill: none;
      }

      .cls-3 {
        clip-path: url(#clippath);
      }
    </style>
    <clipPath id="clippath">
      <rect class="cls-2" width="40" height="40"/>
    </clipPath>
  </defs>
  <g id="Ebene_1-2" data-name="Ebene_1">
    <g id="Instagram">
      <g class="cls-3">
        <path class="cls-1" d="M20,4.25c-4.28,0-4.82.02-6.5.1-1.68.08-2.82.34-3.83.73-1.04.4-1.92.94-2.79,1.82-.88.88-1.42,1.75-1.82,2.79-.39,1-.66,2.15-.73,3.82-.08,1.68-.09,2.22-.09,6.49s.02,4.81.1,6.49c.08,1.68.34,2.82.73,3.82.4,1.04.94,1.91,1.82,2.79.88.88,1.76,1.42,2.79,1.82,1,.39,2.15.65,3.83.73,1.68.08,2.22.1,6.5.1s4.82-.02,6.5-.1c1.68-.08,2.82-.34,3.83-.73,1.04-.4,1.91-.94,2.79-1.82.88-.88,1.42-1.75,1.82-2.79.39-1,.65-2.15.73-3.82.08-1.68.1-2.22.1-6.49s-.02-4.81-.1-6.49c-.08-1.68-.34-2.82-.73-3.82-.4-1.04-.94-1.91-1.82-2.79-.88-.88-1.75-1.41-2.79-1.82-1-.39-2.15-.65-3.83-.73-1.68-.08-2.22-.1-6.5-.1h0ZM18.59,7.09c.42,0,.89,0,1.41,0,4.21,0,4.71.02,6.37.09,1.54.07,2.37.33,2.93.54.74.29,1.26.63,1.81,1.18.55.55.89,1.08,1.18,1.81.22.55.47,1.39.54,2.92.08,1.66.09,2.16.09,6.36s-.02,4.7-.09,6.36c-.07,1.54-.33,2.37-.54,2.92-.29.74-.63,1.26-1.18,1.81-.55.55-1.08.89-1.81,1.18-.55.22-1.39.47-2.93.54-1.66.08-2.16.09-6.37.09s-4.71-.02-6.37-.09c-1.54-.07-2.37-.33-2.93-.54-.74-.29-1.26-.63-1.81-1.18-.55-.55-.89-1.07-1.18-1.81-.22-.55-.47-1.39-.54-2.92-.08-1.66-.09-2.16-.09-6.36s.02-4.7.09-6.36c.07-1.54.33-2.37.54-2.92.29-.74.63-1.26,1.18-1.81.55-.55,1.08-.89,1.81-1.18.56-.22,1.39-.47,2.93-.54,1.45-.07,2.02-.09,4.96-.09h0ZM28.41,9.7c-1.04,0-1.89.85-1.89,1.89s.85,1.89,1.89,1.89,1.89-.85,1.89-1.89-.85-1.89-1.89-1.89h0ZM20,11.91c-4.47,0-8.09,3.62-8.09,8.09s3.62,8.09,8.09,8.09,8.09-3.62,8.09-8.09-3.62-8.09-8.09-8.09h0ZM20,14.75c2.9,0,5.25,2.35,5.25,5.25s-2.35,5.25-5.25,5.25-5.25-2.35-5.25-5.25,2.35-5.25,5.25-5.25h0Z"/>
      </g>
    </g>
  </g>
</svg>