<?xml version="1.0" encoding="UTF-8"?>
<svg id="Ebene_2" data-name="Ebene 2" xmlns="http://www.w3.org/2000/svg" viewBox="0 0 56 56">
  <defs>
    <style>
      .cls-1 {
        fill: #fff;
      }
    </style>
  </defs>
  <g id="Ebene_1-2" data-name="Ebene 1">
    <path class="cls-1" d="M55.71,12.35c0-6.82-5.24-12.06-12.06-12.06,0,0-1.76-.29-15.65-.29s-15.65.29-15.65.29C5.53.29.29,5.53.29,12.35c0,0-.29,1.29-.29,15.65s.29,15.65.29,15.65c0,6.82,5.24,12.06,12.06,12.06,0,0,4.03.29,15.65.29s15.65-.29,15.65-.29c6.82,0,12.06-5.24,12.06-12.06,0,0,.29-1.11.29-15.65s-.29-15.65-.29-15.65ZM18.86,43.63c0,.48-.39.87-.87.87h-4.99c-.48,0-.87-.39-.87-.87v-20.7c0-.48.39-.87.87-.87h4.99c.48,0,.87.39.87.87v20.7ZM19.65,14.87c-.27,1.77-1.72,3.22-3.49,3.49-2.84.43-5.26-1.98-4.82-4.82.27-1.77,1.72-3.22,3.49-3.49,2.84-.43,5.26,1.98,4.82,4.82ZM45.79,43.63c0,.48-.39.87-.87.87h-4.99c-.48,0-.87-.39-.87-.87v-10.36c0-2.98-1.19-5.6-3.98-5.6-3.38,0-5,2.29-5,6.05v9.91c0,.48-.39.87-.87.87h-4.99c-.48,0-.87-.39-.87-.87v-20.7c0-.48.39-.87.87-.87h4.6c.48,0,.87.39.87.87v2.36h.07c.97-1.74,3.83-3.51,7.36-3.51h0c6.78,0,8.67,3.6,8.67,10.26v11.59Z"/>
  </g>
</svg>