<?xml version="1.0" encoding="UTF-8"?>
<svg id="Ebene_2" data-name="Ebene 2" xmlns="http://www.w3.org/2000/svg" viewBox="0 0 56 56">
  <defs>
    <style>
      .cls-1 {
        fill: #fff;
      }
    </style>
  </defs>
  <g id="Ebene_1-2" data-name="Ebene 1">
    <path class="cls-1" d="M55.71,12.35c0-6.82-5.24-12.06-12.06-12.06,0,0-1.76-.29-15.65-.29s-15.65.29-15.65.29C5.53.29.29,5.53.29,12.35c0,0-.29,1.29-.29,15.65s.29,15.65.29,15.65c0,6.82,5.24,12.06,12.06,12.06,0,0,4.03.29,15.65.29s15.65-.29,15.65-.29c6.82,0,12.06-5.24,12.06-12.06,0,0,.29-1.11.29-15.65s-.29-15.65-.29-15.65ZM31.16,38.78c-2.45,0-4.78-1.28-5.58-2.77,0,0-1.2,4.64-1.5,5.77-.11.41-.24.81-.39,1.2-.25.66-.53,1.3-.84,1.93-.36.73-.68,1.47-1.13,2.16-.17.26-.36.52-.6.72-.07.06-.14.11-.21.16-.39.24-.87.33-1.24-.01-.27-.25-.33-.66-.37-1.03-.04-.39-.08-.78-.12-1.18-.03-.32,0-.65-.02-.98-.02-.71-.02-1.42.02-2.12.04-.66.12-1.33.26-1.98.34-1.52.71-3.02,1.06-4.54.17-.74.35-1.48.52-2.22.09-.38.18-.75.27-1.13.22-.96.57-1.89.71-2.88.11-.8.04-1.53-.1-2.32-.12-.71-.34-1.41-.38-2.14-.04-.75.07-1.59.24-2.32.46-1.98,1.94-4.06,4.17-4.06,2.08,0,3.07,1.57,3.07,3.43,0,2.08-1.31,5.22-2.01,8.1-.58,2.41,1.2,4.38,3.61,4.38,4.31,0,7.63-4.56,7.63-11.13,0-5.8-4.2-9.89-10.15-9.89-6.9,0-10.99,5.18-10.99,10.55,0,1.3.22,2.67.7,3.89.28.71.65,1.38.88,2.1.21.66.35,1.5.18,2.19-.18.72-.84,1.18-1.57.98-.86-.24-1.45-1.07-1.98-1.73-.61-.76-1.1-1.63-1.49-2.52-.69-1.57-1.09-3.3-1.09-5.01,0-7.67,5.58-14.71,16.06-14.71,8.43,0,14.97,6.02,14.97,14.02s-5.29,15.11-12.59,15.11Z"/>
  </g>
</svg>