<?xml version="1.0" encoding="UTF-8"?>
<svg id="Ebene_2" xmlns="http://www.w3.org/2000/svg" xmlns:xlink="http://www.w3.org/1999/xlink" viewBox="0 0 40 40">
  <defs>
    <style>
      .cls-1 {
        fill: #fff;
      }

      .cls-2 {
        fill: none;
      }

      .cls-3 {
        clip-path: url(#clippath);
      }
    </style>
    <clipPath id="clippath">
      <rect class="cls-2" width="40" height="40"/>
    </clipPath>
  </defs>
  <g id="Ebene_1-2" data-name="Ebene_1">
    <g id="Threads">
      <g class="cls-3">
        <path class="cls-1" d="M28.14,18.76c-.15-.07-.3-.14-.45-.2-.26-4.84-2.9-7.6-7.34-7.63-.02,0-.04,0-.06,0-2.65,0-4.86,1.13-6.22,3.19l2.44,1.67c1.01-1.54,2.61-1.87,3.78-1.87.01,0,.03,0,.04,0,1.46,0,2.56.43,3.28,1.26.52.6.87,1.44,1.04,2.49-1.3-.22-2.7-.29-4.19-.2-4.22.24-6.93,2.7-6.75,6.12.09,1.73.96,3.23,2.43,4.2,1.25.82,2.86,1.23,4.53,1.14,2.21-.12,3.94-.96,5.14-2.5.92-1.17,1.5-2.68,1.75-4.59,1.05.63,1.83,1.47,2.26,2.47.73,1.71.77,4.51-1.51,6.8-2,2-4.41,2.87-8.06,2.9-4.04-.03-7.09-1.33-9.08-3.85-1.86-2.36-2.82-5.78-2.86-10.15.04-4.37,1-7.79,2.86-10.15,1.99-2.52,5.04-3.82,9.08-3.85,4.07.03,7.18,1.33,9.24,3.87,1.01,1.24,1.77,2.81,2.28,4.63l2.86-.76c-.61-2.25-1.57-4.18-2.87-5.78-2.64-3.25-6.51-4.92-11.49-4.95h-.02c-4.97.03-8.79,1.71-11.36,4.97-2.29,2.91-3.46,6.95-3.5,12.02h0s0,.02,0,.02c.04,5.07,1.22,9.11,3.5,12.02,2.57,3.26,6.39,4.94,11.36,4.97h.02c4.42-.03,7.54-1.19,10.1-3.75,3.36-3.35,3.26-7.56,2.15-10.14-.79-1.85-2.31-3.35-4.38-4.35ZM20.5,25.93c-1.85.1-3.77-.73-3.86-2.5-.07-1.32.94-2.79,3.98-2.96.35-.02.69-.03,1.03-.03,1.1,0,2.14.11,3.08.31-.35,4.37-2.4,5.08-4.21,5.18Z"/>
      </g>
    </g>
  </g>
</svg>