<?xml version="1.0" encoding="UTF-8"?>
<svg id="Ebene_2" data-name="Ebene 2" xmlns="http://www.w3.org/2000/svg" viewBox="0 0 56 56">
  <defs>
    <style>
      .cls-1 {
        fill: #fff;
      }
    </style>
  </defs>
  <g id="Ebene_1-2" data-name="Ebene 1">
    <g>
      <path class="cls-1" d="M28.68,28.51c-3.34.19-4.45,1.81-4.38,3.26.1,1.96,2.22,2.87,4.25,2.75,1.99-.11,4.25-.89,4.64-5.7-1.03-.23-2.17-.34-3.38-.34-.37,0-.74.01-1.13.03Z"/>
      <path class="cls-1" d="M55.71,12.35c0-6.82-5.24-12.06-12.06-12.06,0,0-1.76-.29-15.65-.29s-15.65.29-15.65.29C5.53.29.29,5.53.29,12.35c0,0-.29,1.29-.29,15.65s.29,15.65.29,15.65c0,6.82,5.24,12.06,12.06,12.06,0,0,4.03.29,15.65.29s15.65-.29,15.65-.29c6.82,0,12.06-5.24,12.06-12.06,0,0,.29-1.11.29-15.65s-.29-15.65-.29-15.65ZM40.94,21.95c-.55-2.01-1.39-3.73-2.5-5.1-2.27-2.79-5.69-4.22-10.16-4.26-4.44.03-7.8,1.46-9.99,4.24-2.05,2.6-3.1,6.36-3.14,11.16.04,4.81,1.1,8.56,3.14,11.16,2.18,2.78,5.54,4.2,9.99,4.24,4.01-.03,6.66-.98,8.86-3.19,2.52-2.51,2.47-5.6,1.66-7.48-.47-1.1-1.33-2.02-2.49-2.72-.28,2.1-.92,3.77-1.93,5.05-1.33,1.69-3.23,2.62-5.66,2.75-1.84.1-3.61-.34-4.98-1.25-1.62-1.07-2.57-2.71-2.68-4.62-.2-3.76,2.78-6.47,7.42-6.73,1.65-.09,3.19-.02,4.61.22-.19-1.16-.57-2.07-1.14-2.74-.78-.91-2-1.38-3.6-1.39-.01,0-.03,0-.04,0-1.29,0-3.04.36-4.16,2.05l-2.68-1.84c1.49-2.27,3.92-3.51,6.84-3.51h.07c4.88.03,7.79,3.08,8.08,8.4.17.07.33.15.49.22,2.28,1.09,3.94,2.75,4.82,4.78,1.22,2.84,1.33,7.47-2.37,11.16-2.82,2.82-6.25,4.09-11.11,4.13h-.02c-5.47-.04-9.67-1.88-12.5-5.47-2.51-3.2-3.81-7.64-3.85-13.22h0s0-.03,0-.03c.04-5.57,1.34-10.02,3.85-13.22,2.83-3.59,7.03-5.43,12.5-5.47h.02c5.48.04,9.73,1.87,12.64,5.45,1.43,1.77,2.49,3.89,3.16,6.36l-3.15.84Z"/>
    </g>
  </g>
</svg>