<?xml version="1.0" encoding="UTF-8"?>
<svg id="Ebene_2" xmlns="http://www.w3.org/2000/svg" xmlns:xlink="http://www.w3.org/1999/xlink" viewBox="0 0 40 40">
  <defs>
    <style>
      .cls-1 {
        fill: #fff;
      }

      .cls-2 {
        fill: none;
      }

      .cls-3 {
        clip-path: url(#clippath);
      }
    </style>
    <clipPath id="clippath">
      <rect class="cls-2" width="40" height="40"/>
    </clipPath>
  </defs>
  <g id="Ebene_1-2" data-name="Ebene_1">
    <g id="TikTok">
      <g class="cls-3">
        <path class="cls-1" d="M21.65,15.25c0,3.62,0,7.24,0,10.87,0,2.07-1.36,3.93-3.37,4.51-2.32.66-4.22-.25-5.38-1.86-2.02-2.8-.33-6.79,3.06-7.43.64-.12,1.28-.11,1.91.02.24.05.39.02.39-.27,0-1.65,0-3.31,0-4.96,0-.25-.12-.36-.36-.37-.34-.02-.68-.07-1.02-.07-5.63-.08-10.42,4.57-10.45,10.21-.02,2.98.98,5.56,3.19,7.66,3.45,3.28,8.57,3.94,12.64,1.47,3.3-2.01,5-5.01,5.06-8.87.05-3.68.01-7.36.02-11.04,0-.16-.08-.38.1-.46.15-.07.28.1.41.18,1.59,1.03,3.31,1.71,5.18,2.02.5.08.54.05.55-.46,0-1.77,0-3.54,0-5.3,0-.89,0-.88-.86-1.02-3.54-.56-5.75-2.62-6.77-6.01-.12-.4-.28-.56-.7-.55-.94.03-1.88,0-2.82,0q-.77,0-.77.75c0,3.66,0,7.33,0,10.99Z"/>
      </g>
    </g>
  </g>
</svg>