<?xml version="1.0" encoding="UTF-8"?>
<svg id="Ebene_2" data-name="Ebene 2" xmlns="http://www.w3.org/2000/svg" viewBox="0 0 56 56">
  <defs>
    <style>
      .cls-1 {
        fill: #fff;
      }
    </style>
  </defs>
  <g id="Ebene_1-2" data-name="Ebene 1">
    <path class="cls-1" d="M55.71,12.35c0-6.82-5.24-12.06-12.06-12.06,0,0-1.76-.29-15.65-.29s-15.65.29-15.65.29C5.53.29.29,5.53.29,12.35c0,0-.29,1.29-.29,15.65s.29,15.65.29,15.65c0,6.82,5.24,12.06,12.06,12.06,0,0,4.03.29,15.65.29s15.65-.29,15.65-.29c6.82,0,12.06-5.24,12.06-12.06,0,0,.29-1.11.29-15.65s-.29-15.65-.29-15.65ZM42.93,24.02c0,.56-.05.59-.6.5-2.06-.34-3.95-1.08-5.7-2.22-.14-.09-.28-.28-.45-.2-.21.09-.11.33-.11.51,0,4.05.04,8.09-.02,12.14-.06,4.25-1.94,7.55-5.57,9.76-4.47,2.72-10.11,1.99-13.9-1.61-2.43-2.31-3.52-5.15-3.5-8.43.03-6.2,5.31-11.32,11.5-11.23.38,0,.75.06,1.13.08.27.01.4.14.4.41,0,1.82,0,3.64,0,5.46,0,.32-.17.35-.43.3-.7-.14-1.4-.15-2.1-.02-3.73.7-5.59,5.09-3.37,8.17,1.28,1.77,3.36,2.78,5.92,2.05,2.2-.63,3.7-2.68,3.7-4.96,0-3.98,0-7.97,0-11.95,0-4.03,0-8.06,0-12.09q0-.82.84-.82c1.04,0,2.07.02,3.11,0,.47-.01.64.17.77.6,1.12,3.73,3.56,6,7.45,6.61.95.15.95.14.95,1.12,0,1.94,0,3.89,0,5.83Z"/>
  </g>
</svg>