<?xml version="1.0" encoding="UTF-8"?>
<svg id="Ebene_2" data-name="Ebene 2" xmlns="http://www.w3.org/2000/svg" viewBox="0 0 56 56">
  <defs>
    <style>
      .cls-1 {
        fill: #fff;
      }
    </style>
  </defs>
  <g id="Ebene_1-2" data-name="Ebene 1">
    <g>
      <polygon class="cls-1" points="24.34 33.65 34.2 28 24.34 22.34 24.34 33.65"/>
      <path class="cls-1" d="M55.71,12.35c0-6.82-5.24-12.06-12.06-12.06,0,0-1.76-.29-15.65-.29s-15.65.29-15.65.29C5.53.29.29,5.53.29,12.35c0,0-.29,1.29-.29,15.65s.29,15.65.29,15.65c0,6.82,5.24,12.06,12.06,12.06,0,0,4.03.29,15.65.29s15.65-.29,15.65-.29c6.82,0,12.06-5.24,12.06-12.06,0,0,.29-1.11.29-15.65s-.29-15.65-.29-15.65ZM46.07,37.06c-.44,1.63-1.71,2.9-3.34,3.34-4.59,1.14-25.17,1-29.5,0-1.63-.44-2.9-1.71-3.34-3.34-1.09-4.42-1.01-13.78-.02-18.11.44-1.63,1.71-2.9,3.34-3.34,6.14-1.28,27.31-.87,29.5-.02,1.63.44,2.9,1.71,3.34,3.34,1.15,4.64,1.08,13.42.02,18.13Z"/>
    </g>
  </g>
</svg>